<svg width="40" height="40" viewBox="0 0 40 40" fill="none" xmlns="http://www.w3.org/2000/svg">
<rect width="40" height="40" fill="#BF9D77"/>
<path fill-rule="evenodd" clip-rule="evenodd" d="M18.8575 16.3379C19.3756 15.6397 19.5614 14.9038 18.9754 14.2543C17.6605 12.4143 16.7761 11.2765 16.2214 10.7285C15.1669 9.6868 13.4321 9.82771 12.5188 10.7276C12.0282 11.211 11.8621 11.377 11.3584 11.8886C8.55279 14.6958 10.2638 20.63 14.8124 25.183C19.3599 29.735 25.2935 31.4469 28.1051 28.6338C28.5699 28.1858 28.9634 27.792 29.2738 27.464C30.1688 26.518 30.3047 24.8597 29.2679 23.7824C28.7363 23.2301 27.6513 22.3885 25.7339 21.0169C25.1467 20.4918 24.4504 20.6056 23.812 21.0244C23.5049 21.2259 23.2815 21.4297 22.8595 21.8521L22.0933 22.6187C21.9924 22.7197 20.622 22.0334 19.2917 20.7018C17.9607 19.3695 17.2749 17.9991 17.3753 17.8986L18.1421 17.1314C18.276 16.9974 18.34 16.9325 18.4221 16.8463C18.5931 16.6665 18.7347 16.5034 18.8575 16.3379ZM23.5067 24.0329L24.2731 23.2661C24.5053 23.0337 24.6558 22.8907 24.7783 22.7922C26.4579 23.9984 27.4307 24.7568 27.828 25.1697C28.0666 25.4176 28.0295 25.8699 27.8221 26.089C27.5352 26.3924 27.1623 26.7655 26.7047 27.2068C24.8867 29.0256 20.0969 27.6437 16.2261 23.7691C12.3541 19.8933 10.9729 15.1028 12.7772 13.2975C13.2788 12.788 13.4378 12.6291 13.9213 12.1527C14.1026 11.974 14.5965 11.9339 14.8171 12.1518C15.2441 12.5736 16.0363 13.588 17.2017 15.2113C17.1414 15.2862 17.066 15.3709 16.9743 15.4672C16.907 15.538 16.8509 15.5948 16.7284 15.7175L15.9623 16.484C14.6592 17.787 15.769 20.0047 17.8779 22.1157C19.9855 24.2253 22.204 25.3364 23.5067 24.0329Z" fill="white"/>
</svg>
