<svg width="11" height="10" viewBox="0 0 11 10" fill="none" xmlns="http://www.w3.org/2000/svg">
<path fill-rule="evenodd" clip-rule="evenodd" d="M5.42679 3.16895C5.68584 2.81985 5.77874 2.45192 5.48576 2.12715C4.82828 1.20717 4.38611 0.638246 4.10876 0.364269C3.58148 -0.156598 2.71409 -0.0861426 2.25743 0.363824C2.01215 0.605505 1.92912 0.688499 1.67727 0.944305C0.274443 2.34788 1.12996 5.315 3.40423 7.59151C5.67799 9.8675 8.64482 10.7235 10.0506 9.31692C10.283 9.09289 10.4798 8.89601 10.6349 8.73199C11.0825 8.25899 11.1504 7.42986 10.632 6.89121C10.3662 6.61505 9.8237 6.19423 8.865 5.50847C8.57138 5.24591 8.22324 5.30282 7.90405 5.51222C7.75052 5.61295 7.63879 5.71484 7.42781 5.92603L7.04469 6.30936C6.99422 6.35985 6.30903 6.01671 5.64389 5.35092C4.97839 4.68477 4.63548 3.99953 4.68571 3.94931L5.06909 3.56571C5.13603 3.49871 5.16803 3.46627 5.20907 3.42314C5.29458 3.33327 5.36537 3.25172 5.42679 3.16895ZM7.7514 7.01647L8.1346 6.63306C8.25071 6.51683 8.32597 6.44537 8.38718 6.3961C9.22701 6.9992 9.7134 7.37842 9.91206 7.58485C10.0313 7.70878 10.0128 7.93493 9.90912 8.04452C9.76562 8.19619 9.57919 8.38273 9.35041 8.6034C8.44139 9.5128 6.04648 8.82184 4.1111 6.88455C2.17511 4.94666 1.48448 2.5514 2.38663 1.64874C2.63747 1.39399 2.71694 1.31456 2.95871 1.07633C3.04937 0.987004 3.2963 0.966946 3.40657 1.07588C3.62011 1.28682 4.01621 1.79399 4.59889 2.60567C4.56872 2.64311 4.53105 2.68544 4.4852 2.73362C4.45155 2.76899 4.42351 2.79741 4.36222 2.85876L3.97922 3.24198C3.32764 3.8935 3.88254 5.00236 4.93702 6.05787C5.99078 7.11266 7.10005 7.66818 7.7514 7.01647Z" fill="#BF9D77"/>
</svg>
